
        <svg xmlns="http://www.w3.org/2000/svg" xmlns:xlink="http://www.w3.org/1999/xlink" version="1.1" width="3160.57091882248" 
        height="1389.7583777918082" viewBox="0 0 3160.57091882248 1389.7583777918082">
			
			<g transform="scale(8.028545941123996) translate(10, 10)">
				<defs id="SvgjsDefs4074"></defs><g id="SvgjsG4075" featureKey="T16ghp-0" transform="matrix(1.2241221244122444,0,0,1.2241221244122444,-19.539437219117897,8.879695240362288)" fill="#ffffff"><g xmlns="http://www.w3.org/2000/svg"><path fill="none" d="M58.79,24.9l-6.093,2.669c-1.094,1.094-3.491,1.094-4.589,0l-7.685-3.437   c-0.679,2.666,0.004,6.756,0.006,6.756c-0.691-0.482-1.325-0.733-1.842-0.863c0.762,8.273,5.612,14.651,11.485,14.651   c5.97,0,10.881-6.59,11.518-15.06c0.08-0.547,0.123-1.107,0.131-1.674l-1.862,2.139C60.402,28.878,59.634,26.694,58.79,24.9z"></path><path d="M55.036,54.125h19.532c-2.601-5.29-7.821-9.06-13.968-9.622C60.566,46.092,57.792,50.313,55.036,54.125z"></path><path d="M39.545,44.504c-6.149,0.562-11.366,4.331-13.972,9.621h19.051C42.11,50.313,39.579,46.092,39.545,44.504z"></path><circle cx="50" cy="73.043" r="1.735"></circle><path d="M77.413,92.207H22.588c-0.771,0-1.396,0.626-1.396,1.397c0,0.771,0.625,1.396,1.396,1.396h54.825   c0.771,0,1.396-0.626,1.396-1.396C78.808,92.833,78.183,92.207,77.413,92.207z"></path><path d="M25.758,91.381h48.487c1.801,0,3.264-1.46,3.264-3.265l6.529-30.727c0-1.803-1.462-3.265-3.265-3.265h-6.204   c0.088,0.175,0.173,0.351,0.254,0.528h5.654c1.785,0,3.234,1.431,3.234,3.195l-6.531,29.807c0,1.766-1.447,3.197-3.233,3.197   H26.053c-1.786,0-3.233-1.433-3.233-3.197l-6.53-29.805c0-1.767,1.447-3.195,3.232-3.195h5.797c0.081-0.18,0.168-0.354,0.254-0.528   h-6.346c-1.803,0-3.265,1.461-3.265,3.265l6.529,30.727C22.492,89.921,23.955,91.381,25.758,91.381z"></path><path d="M44.975,54.653c-0.117-0.176-0.234-0.351-0.353-0.527H25.573c-0.086,0.175-0.173,0.352-0.253,0.527H44.975z"></path><path d="M55.035,54.126h-3.6l-0.181-2.579c1.22-0.63,2.165-1.941,2.165-3.274c0,0-1.814,0.801-3.661,0.801   c-1.85,0-3.662-0.801-3.662-0.801c0,1.333,0.944,2.644,2.163,3.274l-0.181,2.579h-3.455c0.117,0.178,0.233,0.354,0.353,0.527h3.066   h3.429h0.001h3.179h20.172c-0.081-0.178-0.166-0.354-0.254-0.527H55.035z"></path><path d="M32.247,14.827l-0.092,1.266c-0.489,0.083-0.866,0.511-0.866,1.028c0,0.465,0.304,0.856,0.724,0.993l-0.839,11.757   l1.158,3.476l1.158-3.476l-0.84-11.757c0.419-0.138,0.724-0.528,0.724-0.993c0-0.518-0.375-0.945-0.866-1.028l-0.085-1.165   l2.009,1.163l0.081,0.048l3.804,2.201l-0.247,3.139c-0.536,1.195-0.923,2.478-1.119,3.829c-0.101,0.691-0.15,1.398-0.15,2.12   c0,0.292,0.01,0.582,0.025,0.871c0.024,0.42,0.064,0.837,0.125,1.248c0.01,0.125,0.021,0.249,0.03,0.373   c0.838,9.47,6.379,16.788,13.092,16.788c6.798,0,12.393-7.507,13.119-17.156c0.1-0.693,0.152-1.403,0.152-2.126   c0-0.723-0.053-1.432-0.152-2.125c-0.206-1.419-0.625-2.762-1.204-4.007l-0.246-2.451l3.89-2.251l0.869-0.501l3.619-2.092   c0.227-0.229,0.227-0.596,0-0.822L50.875,5.17c-0.226-0.227-0.592-0.227-0.817,0l-19.244,8.006c-0.229,0.226-0.229,0.593,0,0.822   L32.247,14.827z M61.591,29.617c-0.637,8.47-5.548,15.06-11.518,15.06c-5.873,0-10.724-6.378-11.485-14.651   c0.517,0.13,1.15,0.381,1.842,0.863c-0.001,0-0.685-4.09-0.006-6.756l7.685,3.437c1.098,1.094,3.495,1.094,4.589,0L58.79,24.9   c0.844,1.794,1.612,3.978,1.069,5.181l1.862-2.139C61.714,28.509,61.671,29.069,61.591,29.617z"></path></g></g><g id="SvgjsG4076" featureKey="Fok8m0-0" transform="matrix(2.9788502755414346,0,0,2.9788502755414346,101.51057486222928,-17.873101653248607)" fill="#ffffff"><path d="M8.02 13.16 c2.42 0.38 3.7 1.62 3.7 3.34 c0 2.18 -1.86 3.5 -5.42 3.5 l-5.8 0 l0 -0.64 c1.08 -0.08 1.42 -0.22 1.42 -0.72 l0 -9.44 c0 -0.54 -0.3 -0.9 -1.34 -0.98 l0 -0.64 c1.84 0.08 3.46 0 4.62 0 c4.16 0 5.16 1.58 5.16 3.02 c0 1.04 -0.6 1.9 -2.34 2.56 z M4.28 8.3 l0 5.04 c2.92 -0.44 3.78 -1.1 3.78 -2.74 c0 -1.26 -0.7 -2.32 -2.54 -2.32 c-0.64 0 -0.92 0 -1.24 0.02 z M6.22 19.26 c2.1 0 3.08 -0.9 3.08 -2.72 c0 -1.62 -1.02 -2.86 -2.92 -2.86 l-2.1 0.34 l0 4.6 c0 0.5 0.06 0.64 1.08 0.64 l0.86 0 z M19 9.78 c0.98 0 1.64 0.52 1.64 1.22 s-0.5 1.1 -1.04 1.1 c-0.92 0 -0.9 -0.8 -1.76 -0.8 c-1.16 0 -1.6 1.48 -1.76 1.94 l0 5.38 c0 0.5 0.56 0.66 1.22 0.74 l0 0.64 c-1.56 -0.08 -3.12 -0.08 -4.68 0 l0 -0.64 c0.68 -0.08 1.22 -0.24 1.22 -0.74 l0 -6.36 c0 -0.7 -0.44 -0.86 -1.22 -0.76 l0 -0.64 c1.76 -0.32 2.52 -1.12 2.98 -1.12 c0.34 0 0.54 0.24 0.48 0.62 l-0.3 2 c0.72 -1.64 1.66 -2.58 3.22 -2.58 z  M29.220000000000006 17.8 c0 0.72 0.44 0.86 1.22 0.74 l0 0.7 c-1.76 0.42 -2.5 1 -3 1 c-0.34 0 -0.52 -0.18 -0.5 -0.6 l0.12 -1.5 c-0.44 0.96 -1.38 2.1 -3.1 2.1 c-1.42 0 -2.96 -0.7 -2.96 -2.54 s1.26 -3.06 5.94 -4.02 l0 -0.92 c0 -1.68 -0.12 -2.34 -1.02 -2.34 c-2.92 0 -1.38 3.02 -3.26 3.02 c-0.68 0 -1 -0.4 -1 -0.94 c0 -1.48 1.9 -2.7 4.34 -2.7 c2.26 0 3.22 0.68 3.22 3.08 l0 4.92 z M24.780000000000005 19.26 c1.24 0 1.96 -1.46 2.16 -2.12 l0 -2.84 c-3.32 0.72 -3.6 2.36 -3.6 3.24 c0 1.02 0.54 1.72 1.44 1.72 z M40.72 18.62 c0 0.5 0.54 0.66 1.22 0.74 l0 0.64 c-1.56 -0.06 -3.12 -0.06 -4.7 0 l0 -0.64 c0.68 -0.06 1.22 -0.24 1.22 -0.74 l0 -5.32 c0 -1.5 -0.22 -2.5 -1.26 -2.5 c-1.38 0 -2.46 1.58 -2.68 2 l0 5.82 c0 0.5 0.54 0.68 1.22 0.74 l0 0.64 c-1.56 -0.06 -3.12 -0.06 -4.68 0 l0 -0.64 c0.66 -0.08 1.2 -0.24 1.2 -0.74 l0 -6.38 c0 -0.7 -0.44 -0.86 -1.22 -0.76 l0 -0.64 c1.76 -0.32 2.54 -1.1 3 -1.1 c0.34 0 0.52 0.24 0.48 0.62 l-0.18 1.66 c0.42 -0.64 1.62 -2.22 3.48 -2.22 c1.62 0 2.9 0.68 2.9 3.46 l0 5.36 z M51.8 17.78 c0 0.72 0.44 0.86 1.22 0.74 l0 0.72 c-1.74 0.42 -2.48 1 -2.98 1 c-0.34 0 -0.54 -0.24 -0.5 -0.64 l0.14 -1.1 c-0.28 0.78 -1.06 1.7 -2.68 1.7 c-2.16 0 -4.36 -1.8 -4.36 -5.28 c0 -3.32 2.26 -5.1 4.3 -5.1 c1.34 0 2.12 0.72 2.6 1.38 l0 -2.5 c0 -0.7 -0.44 -0.9 -1.22 -0.8 l0 -0.66 c1.76 -0.32 2.54 -1.06 3.02 -1.06 c0.32 0 0.46 0.18 0.46 0.58 l0 11.02 z M47.56 19.5 c1.16 0 1.86 -1.14 1.98 -2.1 l0 -5.42 c-0.48 -0.7 -1.26 -1.48 -2.26 -1.48 c-1.48 0 -2.2 1.38 -2.2 3.96 c0 2.76 0.92 5.04 2.48 5.04 z M56.220000000000006 8.4 c-0.66 0 -1.22 -0.54 -1.22 -1.2 s0.56 -1.2 1.22 -1.2 c0.64 0 1.2 0.54 1.2 1.2 s-0.56 1.2 -1.2 1.2 z M57.50000000000001 18.62 c0 0.5 0.54 0.66 1.22 0.74 l0 0.64 c-1.56 -0.06 -3.12 -0.06 -4.68 0 l0 -0.64 c0.66 -0.08 1.2 -0.24 1.2 -0.74 l0 -6.46 c0 -0.7 -0.44 -0.88 -1.22 -0.84 l0 -0.62 c1.84 -0.28 2.58 -0.94 3.06 -0.94 c0.32 0 0.54 0.16 0.54 0.52 c0 0.66 -0.12 1.4 -0.12 2.64 l0 5.7 z M69.10000000000001 18.62 c0 0.5 0.54 0.66 1.22 0.74 l0 0.64 c-1.56 -0.06 -3.12 -0.06 -4.7 0 l0 -0.64 c0.68 -0.06 1.22 -0.24 1.22 -0.74 l0 -5.32 c0 -1.5 -0.22 -2.5 -1.26 -2.5 c-1.38 0 -2.46 1.58 -2.68 2 l0 5.82 c0 0.5 0.54 0.68 1.22 0.74 l0 0.64 c-1.56 -0.06 -3.12 -0.06 -4.68 0 l0 -0.64 c0.66 -0.08 1.2 -0.24 1.2 -0.74 l0 -6.38 c0 -0.7 -0.44 -0.86 -1.22 -0.76 l0 -0.64 c1.76 -0.32 2.54 -1.1 3 -1.1 c0.34 0 0.52 0.24 0.48 0.62 l-0.18 1.66 c0.42 -0.64 1.62 -2.22 3.48 -2.22 c1.62 0 2.9 0.68 2.9 3.46 l0 5.36 z M74.94 18.62 c0 0.5 0.38 0.66 1.44 0.74 l0 0.64 c-1.72 -0.06 -3.54 -0.06 -5.26 0 l0 -0.64 c1.08 -0.08 1.46 -0.24 1.46 -0.74 l0 -9.66 c0 -0.5 -0.38 -0.66 -1.46 -0.74 l0 -0.64 c1.72 0.06 3.54 0.06 5.26 0 l0 0.64 c-1.06 0.08 -1.44 0.24 -1.44 0.74 l0 9.66 z M88.06 17.84 c0.38 1.02 0.56 1.42 1.96 1.52 l0 0.64 c-1.8 -0.06 -3.66 -0.06 -5.46 0 l0 -0.64 c1.34 -0.1 1.5 -0.32 1.2 -1.12 l-0.9 -2.44 l-4.08 0 l-0.86 2.52 c-0.24 0.76 0.52 0.94 1.8 1.04 l0 0.64 c-1.46 -0.06 -3.18 -0.06 -4.64 0 l0 -0.64 c1.32 -0.1 1.82 -0.42 2.14 -1.34 l3.58 -10.54 l1.36 0 z M81.00000000000001 15.1 l3.6 0 l-1.88 -5.08 z"></path></g><g id="SvgjsG4077" featureKey="Fok8m0-1" transform="matrix(4.7927151256633325,0,0,4.7927151256633325,100.60364015182367,22.381019060780023)" fill="#ffffff"><path d="M6.92 17.46 c0 -1.34 -1.06 -2.06 -2.76 -2.86 c-1.88 -0.88 -3.52 -1.88 -3.52 -4.02 c0 -1.92 1.54 -3.32 3.76 -3.32 c1.5 0 2.04 0.46 2.52 0.46 c0.22 0 0.38 -0.04 0.46 -0.3 l0.66 0 l0.14 2.76 l-0.4 -0.02 c-0.28 -0.02 -0.4 -0.1 -0.54 -0.38 c-0.5 -1.12 -1.46 -1.8 -2.56 -1.8 c-1.26 0 -1.98 0.86 -1.98 1.86 c0 1.26 0.88 1.88 2.38 2.58 c1.58 0.76 4.1 1.68 4.1 4.26 c0 2.38 -2.2 3.58 -4.06 3.58 c-1.72 0 -2.52 -0.76 -3.1 -0.76 c-0.4 0 -0.56 0.24 -0.62 0.48 l-0.72 0 l-0.18 -2.9 l0.58 0 c0.24 0 0.36 0.08 0.46 0.34 c0.46 1.2 1.64 2.08 3.18 2.08 c1.34 0 2.2 -0.82 2.2 -2.04 z M18.22 17.8 c0.24 0 0.36 0.2 0.22 0.46 c-0.56 1.12 -1.58 1.94 -3.3 1.94 c-2.64 0 -4.86 -1.88 -4.86 -5.26 c0 -3.22 2.2 -5.12 4.64 -5.12 c2.2 0 3.68 1.22 3.7 2.6 c0 0.46 -0.36 0.98 -1.08 0.98 c-0.66 0 -1.08 -0.42 -1.04 -0.94 c0.04 -0.98 -0.2 -1.96 -1.36 -1.96 c-1.58 0 -2.4 1.64 -2.4 4.3 c0 2.78 1 4.72 2.58 4.72 c1.34 0 1.98 -0.76 2.18 -1.5 c0.04 -0.16 0.14 -0.22 0.26 -0.22 l0.46 0 z M29.2 18.62 c0 0.5 0.54 0.66 1.22 0.74 l0 0.64 c-1.56 -0.06 -3.12 -0.06 -4.7 0 l0 -0.64 c0.68 -0.06 1.22 -0.24 1.22 -0.74 l0 -5.32 c0 -1.5 -0.22 -2.5 -1.26 -2.5 c-1.38 0 -2.46 1.6 -2.68 2 l0 5.82 c0 0.5 0.54 0.68 1.22 0.74 l0 0.64 c-1.56 -0.06 -3.12 -0.06 -4.68 0 l0 -0.64 c0.66 -0.08 1.2 -0.24 1.2 -0.74 l0 -9.94 c0 -0.7 -0.44 -0.88 -1.22 -0.76 l0 -0.64 c1.76 -0.32 2.54 -1.1 3 -1.1 c0.34 0 0.48 0.18 0.48 0.58 l0 4.02 l-0.14 1.22 c0.4 -0.64 1.6 -2.2 3.44 -2.2 c1.62 0 2.9 0.68 2.9 3.46 l0 5.36 z M35.76 9.82 c2.3 0 4.68 1.72 4.68 5.08 c0 3.46 -2.38 5.3 -4.64 5.3 c-2.3 0 -4.68 -1.84 -4.68 -5.14 c0 -3.52 2.38 -5.24 4.64 -5.24 z M37.98 15.48 c0 -2.98 -0.96 -4.98 -2.5 -4.98 c-1.22 0 -1.9 1.3 -1.9 3.98 c0 3 0.96 5.04 2.48 5.04 c1.24 0 1.92 -1.34 1.92 -4.04 z M46.28 9.82 c2.3 0 4.68 1.72 4.68 5.08 c0 3.46 -2.38 5.3 -4.64 5.3 c-2.3 0 -4.68 -1.84 -4.68 -5.14 c0 -3.52 2.38 -5.24 4.64 -5.24 z M48.5 15.48 c0 -2.98 -0.96 -4.98 -2.5 -4.98 c-1.22 0 -1.9 1.3 -1.9 3.98 c0 3 0.96 5.04 2.48 5.04 c1.24 0 1.92 -1.34 1.92 -4.04 z M54.92 18.1 c0 0.72 0.44 0.88 1.22 0.8 l0 0.6 c-1.74 0.4 -2.48 0.74 -2.98 0.74 c-0.34 0 -0.48 -0.16 -0.48 -0.56 l0 -11 c0 -0.7 -0.44 -0.88 -1.22 -0.76 l0 -0.64 c1.76 -0.32 2.5 -1.1 2.98 -1.1 c0.34 0 0.48 0.18 0.48 0.58 l0 11.34 z"></path></g><g id="SvgjsG4078" featureKey="TflPBd-0" transform="matrix(0.6343437015512388,0,0,0.6343437015512388,106.9238910031743,140.2215745146107)" fill="#ffffff"><path d="M9.26 6.279999999999999 l-3.24 0 l0 13.14 c0 0.24 -0.08666 0.44666 -0.26 0.62 s-0.38 0.26 -0.62 0.26 c-0.25334 0 -0.46668 -0.08666 -0.64002 -0.26 s-0.26 -0.38 -0.26 -0.62 l0 -13.14 l-3.24 0 c-0.24 0 -0.44666 -0.08334 -0.62 -0.25 s-0.26 -0.37666 -0.26 -0.63 c0 -0.24 0.08666 -0.44666 0.26 -0.62 s0.38 -0.26 0.62 -0.26 l8.26 0 c0.24 0 0.44666 0.08666 0.62 0.26 s0.26 0.38 0.26 0.62 c0 0.25334 -0.08666 0.46334 -0.26 0.63 s-0.38 0.25 -0.62 0.25 z M17.527 20.3 c-0.84 0 -1.6266 -0.16004 -2.36 -0.48004 s-1.3767 -0.75334 -1.93 -1.3 s-0.99 -1.19 -1.31 -1.93 s-0.48 -1.53 -0.48 -2.37 l0 -8.82 c0 -0.24 0.08666 -0.44666 0.26 -0.62 s0.38668 -0.26 0.64002 -0.26 c0.24 0 0.44666 0.08666 0.62 0.26 s0.26 0.38 0.26 0.62 l0 8.82 c0 0.6 0.11334 1.16 0.34 1.68 s0.53332 0.97334 0.91998 1.36 s0.84332 0.69332 1.37 0.91998 s1.0833 0.34 1.67 0.34 c0.6 0 1.16 -0.11334 1.68 -0.34 s0.97666 -0.53332 1.37 -0.91998 s0.70334 -0.84332 0.93 -1.37 s0.34 -1.0833 0.34 -1.67 l0 -8.82 c0 -0.24 0.08666 -0.44666 0.26 -0.62 s0.38 -0.26 0.62 -0.26 c0.25334 0 0.46668 0.08666 0.64002 0.26 s0.26 0.38 0.26 0.62 l0 8.82 c0 0.84 -0.16 1.63 -0.48 2.37 s-0.75666 1.3833 -1.31 1.93 s-1.2 0.98 -1.94 1.3 s-1.53 0.48 -2.37 0.48 z M47.741 20.3 c-0.24 0 -0.44666 -0.08666 -0.62 -0.26 s-0.26 -0.38 -0.26 -0.62 l0 -10.42 l-5.24 10.8 c-0.08 0.14666 -0.19334 0.26666 -0.34 0.36 s-0.3 0.14 -0.46 0.14 s-0.31334 -0.04666 -0.46 -0.14 s-0.26 -0.21334 -0.34 -0.36 l-5.24 -10.8 l0 10.42 c0 0.24 -0.08334 0.44666 -0.25 0.62 s-0.37666 0.26 -0.63 0.26 c-0.24 0 -0.44666 -0.08666 -0.62 -0.26 s-0.26 -0.38 -0.26 -0.62 l0 -14.02 c0 -0.24 0.08666 -0.44666 0.26 -0.62 s0.38 -0.26 0.62 -0.26 c0.36 0 0.62666 0.16 0.8 0.48 l6.12 12.42 l6.12 -12.42 c0.17334 -0.32 0.44 -0.48 0.8 -0.48 c0.24 0 0.44666 0.08666 0.62 0.26 s0.26 0.38 0.26 0.62 l0 14.02 c0 0.24 -0.08666 0.44666 -0.26 0.62 s-0.38 0.26 -0.62 0.26 z M63.428000000000004 20.22 c-0.10666 0.05334 -0.21992 0.08 -0.33992 0.08 c-0.17334 0 -0.33668 -0.04666 -0.49002 -0.14 s-0.26334 -0.22668 -0.33 -0.40002 l-1.58 -3.72 l-7.26 0 l-1.58 3.72 c-0.09334 0.22666 -0.25334 0.38666 -0.48 0.48 s-0.45332 0.08668 -0.67998 -0.01998 c-0.22666 -0.09334 -0.38666 -0.25334 -0.48 -0.48 s-0.08668 -0.45332 0.01998 -0.67998 l1.8 -4.26 l4.22 -9.88 c0.06666 -0.17334 0.17332 -0.30668 0.31998 -0.40002 s0.31332 -0.14 0.49998 -0.14 c0.17334 0 0.33334 0.04666 0.48 0.14 s0.25332 0.22668 0.31998 0.40002 c1.0133 2.3734 2.02 4.73 3.02 7.07 s2.0066 4.6966 3.02 7.07 c0.09334 0.22666 0.09334 0.45332 0 0.67998 s-0.25334 0.38666 -0.48 0.48 z M57.068000000000005 7.539999999999999 l-2.88 6.72 l5.74 0 z M69.915 13.36 l-0.24 -0.000039062 l0.26 -0.46 l3.62 6.06 c0.08 0.14666 0.12 0.3 0.12 0.46 c0 0.24 -0.08666 0.44666 -0.26 0.62 s-0.38 0.26 -0.62 0.26 c-0.16 0 -0.31 -0.04 -0.45 -0.12 s-0.25 -0.18666 -0.33 -0.32 l-3.88 -6.5 l-0.86 0 l0 6.06 c0 0.24 -0.08666 0.44666 -0.26 0.62 s-0.38 0.26 -0.62 0.26 c-0.25334 0 -0.46668 -0.08666 -0.64002 -0.26 s-0.26 -0.38 -0.26 -0.62 l0 -14.02 c0 -0.24 0.08666 -0.44666 0.26 -0.62 s0.38668 -0.26 0.64002 -0.26 l3.52 0 c0.61334 0 1.19 0.11666 1.73 0.35 s1.01 0.55 1.41 0.95 s0.71666 0.86666 0.95 1.4 s0.35 1.1067 0.35 1.72 s-0.11666 1.1867 -0.35 1.72 s-0.55 1 -0.95 1.4 s-0.87 0.71666 -1.41 0.95 s-1.1167 0.35 -1.73 0.35 z M69.915 6.279999999999999 l-2.64 0 l0 5.3 l2.64 0 c0.36 0 0.70334 -0.07 1.03 -0.21 s0.61 -0.33 0.85 -0.57 s0.43 -0.52 0.57 -0.84 s0.21 -0.66 0.21 -1.02 s-0.07 -0.70334 -0.21 -1.03 s-0.33 -0.61 -0.57 -0.85 s-0.52334 -0.43 -0.85 -0.57 s-0.67 -0.21 -1.03 -0.21 z M83.42200000000001 20.3 c-1.1067 0 -2.1434 -0.21006 -3.11 -0.63006 s-1.81 -0.99 -2.53 -1.71 s-1.29 -1.5633 -1.71 -2.53 s-0.63 -2.0034 -0.63 -3.11 c0 -1.0933 0.21 -2.1166 0.63 -3.07 s0.99 -1.78 1.71 -2.48 s1.5633 -1.25 2.53 -1.65 s2.0034 -0.6 3.11 -0.6 c1.0667 0 2.08 0.19666 3.04 0.59 s1.82 0.97 2.58 1.73 c0.18666 0.18666 0.28 0.4 0.28 0.64 s-0.09334 0.44666 -0.28 0.62 c-0.17334 0.17334 -0.38 0.26 -0.62 0.26 s-0.44666 -0.08666 -0.62 -0.26 c-0.6 -0.6 -1.2733 -1.0533 -2.02 -1.36 s-1.5333 -0.46 -2.36 -0.46 c-0.86666 0 -1.6767 0.15666 -2.43 0.47 s-1.41 0.74 -1.97 1.28 s-1 1.1767 -1.32 1.91 s-0.48 1.5267 -0.48 2.38 s0.16334 1.6567 0.49 2.41 s0.77 1.41 1.33 1.97 s1.2167 1.0033 1.97 1.33 s1.5567 0.49 2.41 0.49 c0.82666 0 1.6133 -0.15334 2.36 -0.46 s1.42 -0.75332 2.02 -1.34 c0.17334 -0.18666 0.38 -0.28 0.62 -0.28 s0.44666 0.09334 0.62 0.28 c0.18666 0.17334 0.28 0.38 0.28 0.62 s-0.09334 0.44666 -0.28 0.62 c-0.76 0.76 -1.62 1.34 -2.58 1.74 s-1.9733 0.6 -3.04 0.6 z M103.68900000000001 20.22 c-0.10666 0.05334 -0.21992 0.08 -0.33992 0.08 c-0.17334 0 -0.33668 -0.04666 -0.49002 -0.14 s-0.26334 -0.22668 -0.33 -0.40002 l-1.58 -3.72 l-7.26 0 l-1.58 3.72 c-0.09334 0.22666 -0.25334 0.38666 -0.48 0.48 s-0.45332 0.08668 -0.67998 -0.01998 c-0.22666 -0.09334 -0.38666 -0.25334 -0.48 -0.48 s-0.08668 -0.45332 0.01998 -0.67998 l1.8 -4.26 l4.22 -9.88 c0.06666 -0.17334 0.17332 -0.30668 0.31998 -0.40002 s0.31332 -0.14 0.49998 -0.14 c0.17334 0 0.33334 0.04666 0.48 0.14 s0.25332 0.22668 0.31998 0.40002 c1.0133 2.3734 2.02 4.73 3.02 7.07 s2.0066 4.6966 3.02 7.07 c0.09334 0.22666 0.09334 0.45332 0 0.67998 s-0.25334 0.38666 -0.48 0.48 z M97.32900000000001 7.539999999999999 l-2.88 6.72 l5.74 0 z M116.723 13.36 l-2.64 -0.000039062 l0 6.06 c0 0.24 -0.08666 0.44666 -0.26 0.62 s-0.38 0.26 -0.62 0.26 c-0.25334 0 -0.46668 -0.08666 -0.64002 -0.26 s-0.26 -0.38 -0.26 -0.62 l0 -14.02 c0 -0.24 0.08666 -0.44666 0.26 -0.62 s0.38668 -0.26 0.64002 -0.26 l3.52 0 c0.61334 0 1.19 0.11666 1.73 0.35 s1.01 0.55 1.41 0.95 s0.71666 0.86666 0.95 1.4 s0.35 1.1067 0.35 1.72 s-0.11666 1.1867 -0.35 1.72 s-0.55 1 -0.95 1.4 s-0.87 0.71666 -1.41 0.95 s-1.1167 0.35 -1.73 0.35 z M116.723 6.279999999999999 l-2.64 0 l0 5.3 l2.64 0 c0.36 0 0.70334 -0.07 1.03 -0.21 s0.61 -0.33 0.85 -0.57 s0.43 -0.52 0.57 -0.84 s0.21 -0.66 0.21 -1.02 s-0.07 -0.70334 -0.21 -1.03 s-0.33 -0.61 -0.57 -0.85 s-0.52334 -0.43 -0.85 -0.57 s-0.67 -0.21 -1.03 -0.21 z M130.15 20.3 c-1.0933 0 -2.12 -0.20666 -3.08 -0.62 s-1.7967 -0.97668 -2.51 -1.69 s-1.2767 -1.55 -1.69 -2.51 s-0.62 -1.9867 -0.62 -3.08 c0 -1.08 0.20666 -2.1 0.62 -3.06 s0.97668 -1.7967 1.69 -2.51 s1.55 -1.2767 2.51 -1.69 s1.9867 -0.62 3.08 -0.62 c1.08 0 2.1 0.20666 3.06 0.62 s1.7967 0.97668 2.51 1.69 s1.2767 1.55 1.69 2.51 s0.62 1.98 0.62 3.06 c0 1.0933 -0.20666 2.12 -0.62 3.08 s-0.97668 1.7967 -1.69 2.51 s-1.55 1.2767 -2.51 1.69 s-1.98 0.62 -3.06 0.62 z M130.15 6.279999999999999 c-0.84 0 -1.6333 0.16 -2.38 0.48 s-1.4 0.75666 -1.96 1.31 s-1 1.2033 -1.32 1.95 s-0.48 1.54 -0.48 2.38 s0.16 1.6333 0.48 2.38 s0.76 1.4 1.32 1.96 s1.2133 1 1.96 1.32 s1.54 0.48 2.38 0.48 s1.6333 -0.16 2.38 -0.48 s1.3967 -0.76 1.95 -1.32 s0.99 -1.2133 1.31 -1.96 s0.48 -1.54 0.48 -2.38 s-0.16 -1.6333 -0.48 -2.38 s-0.75666 -1.3967 -1.31 -1.95 s-1.2033 -0.99 -1.95 -1.31 s-1.54 -0.48 -2.38 -0.48 z M148.057 6.279999999999999 l-3.24 0 l0 13.14 c0 0.24 -0.08666 0.44666 -0.26 0.62 s-0.38 0.26 -0.62 0.26 c-0.25334 0 -0.46668 -0.08666 -0.64002 -0.26 s-0.26 -0.38 -0.26 -0.62 l0 -13.14 l-3.24 0 c-0.24 0 -0.44666 -0.08334 -0.62 -0.25 s-0.26 -0.37666 -0.26 -0.63 c0 -0.24 0.08666 -0.44666 0.26 -0.62 s0.38 -0.26 0.62 -0.26 l8.26 0 c0.24 0 0.44666 0.08666 0.62 0.26 s0.26 0.38 0.26 0.62 c0 0.25334 -0.08666 0.46334 -0.26 0.63 s-0.38 0.25 -0.62 0.25 z M158.024 20.3 l-6.88 -0.000019531 c-0.25334 0 -0.46668 -0.08666 -0.64002 -0.26 s-0.26 -0.38 -0.26 -0.62 l0 -0.04 l0 -0.04 l0 -13.94 c0 -0.24 0.08666 -0.44666 0.26 -0.62 s0.38668 -0.26 0.64002 -0.26 l6.88 0 c0.25334 0 0.46668 0.08666 0.64002 0.26 s0.26 0.38 0.26 0.62 c0 0.25334 -0.08666 0.46334 -0.26 0.63 s-0.38668 0.25 -0.64002 0.25 l-6 0 l0 5.1 l5.06 0 c0.24 0 0.44666 0.08334 0.62 0.25 s0.26 0.37666 0.26 0.63 c0 0.24 -0.08666 0.44666 -0.26 0.62 s-0.38 0.26 -0.62 0.26 l-5.06 0 l0 5.38 l6 0 c0.25334 0 0.46668 0.08666 0.64002 0.26 s0.26 0.38668 0.26 0.64002 c0 0.24 -0.08666 0.44666 -0.26 0.62 s-0.38668 0.26 -0.64002 0.26 z M170.351 20.3 c-0.33334 0 -0.58668 -0.14 -0.76002 -0.42 l-7.22 -11.44 l0 10.98 c0 0.24 -0.08334 0.44666 -0.25 0.62 s-0.37666 0.26 -0.63 0.26 c-0.24 0 -0.44666 -0.08666 -0.62 -0.26 s-0.26 -0.38 -0.26 -0.62 l0 -14.02 c0 -0.24 0.08666 -0.44666 0.26 -0.62 s0.38 -0.26 0.62 -0.26 c0.33334 0 0.58668 0.13334 0.76002 0.4 l7.22 11.44 l0 -10.96 c0 -0.24 0.08334 -0.44666 0.25 -0.62 s0.37666 -0.26 0.63 -0.26 c0.24 0 0.44666 0.08666 0.62 0.26 s0.26 0.38 0.26 0.62 l0 14.02 c0 0.24 -0.08666 0.44666 -0.26 0.62 s-0.38 0.26 -0.62 0.26 z M181.618 20.3 c-1.1067 0 -2.1434 -0.21006 -3.11 -0.63006 s-1.81 -0.99 -2.53 -1.71 s-1.29 -1.5633 -1.71 -2.53 s-0.63 -2.0034 -0.63 -3.11 c0 -1.0933 0.21 -2.1166 0.63 -3.07 s0.99 -1.78 1.71 -2.48 s1.5633 -1.25 2.53 -1.65 s2.0034 -0.6 3.11 -0.6 c1.0667 0 2.08 0.19666 3.04 0.59 s1.82 0.97 2.58 1.73 c0.18666 0.18666 0.28 0.4 0.28 0.64 s-0.09334 0.44666 -0.28 0.62 c-0.17334 0.17334 -0.38 0.26 -0.62 0.26 s-0.44666 -0.08666 -0.62 -0.26 c-0.6 -0.6 -1.2733 -1.0533 -2.02 -1.36 s-1.5333 -0.46 -2.36 -0.46 c-0.86666 0 -1.6767 0.15666 -2.43 0.47 s-1.41 0.74 -1.97 1.28 s-1 1.1767 -1.32 1.91 s-0.48 1.5267 -0.48 2.38 s0.16334 1.6567 0.49 2.41 s0.77 1.41 1.33 1.97 s1.2167 1.0033 1.97 1.33 s1.5567 0.49 2.41 0.49 c0.82666 0 1.6133 -0.15334 2.36 -0.46 s1.42 -0.75332 2.02 -1.34 c0.17334 -0.18666 0.38 -0.28 0.62 -0.28 s0.44666 0.09334 0.62 0.28 c0.18666 0.17334 0.28 0.38 0.28 0.62 s-0.09334 0.44666 -0.28 0.62 c-0.76 0.76 -1.62 1.34 -2.58 1.74 s-1.9733 0.6 -3.04 0.6 z M190.82500000000002 20.3 c-0.25334 0 -0.46668 -0.08666 -0.64002 -0.26 s-0.26 -0.38 -0.26 -0.62 l0 -14.02 c0 -0.24 0.08666 -0.44666 0.26 -0.62 s0.38668 -0.26 0.64002 -0.26 c0.24 0 0.44666 0.08666 0.62 0.26 s0.26 0.38 0.26 0.62 l0 14.02 c0 0.24 -0.08666 0.44666 -0.26 0.62 s-0.38 0.26 -0.62 0.26 z M206.51200000000003 20.22 c-0.10666 0.05334 -0.21992 0.08 -0.33992 0.08 c-0.17334 0 -0.33668 -0.04666 -0.49002 -0.14 s-0.26334 -0.22668 -0.33 -0.40002 l-1.58 -3.72 l-7.26 0 l-1.58 3.72 c-0.09334 0.22666 -0.25334 0.38666 -0.48 0.48 s-0.45332 0.08668 -0.67998 -0.01998 c-0.22666 -0.09334 -0.38666 -0.25334 -0.48 -0.48 s-0.08668 -0.45332 0.01998 -0.67998 l1.8 -4.26 l4.22 -9.88 c0.06666 -0.17334 0.17332 -0.30668 0.31998 -0.40002 s0.31332 -0.14 0.49998 -0.14 c0.17334 0 0.33334 0.04666 0.48 0.14 s0.25332 0.22668 0.31998 0.40002 c1.0133 2.3734 2.02 4.73 3.02 7.07 s2.0066 4.6966 3.02 7.07 c0.09334 0.22666 0.09334 0.45332 0 0.67998 s-0.25334 0.38666 -0.48 0.48 z M200.15200000000002 7.539999999999999 l-2.88 6.72 l5.74 0 z M214.37900000000002 20.3 l-4.92 -0.000039062 c-0.16 0 -0.31334 -0.04666 -0.46 -0.14 s-0.25332 -0.21334 -0.31998 -0.36 c-0.12 -0.21334 -0.13334 -0.45334 -0.04 -0.72 l0 -13.68 c0 -0.24 0.08666 -0.44666 0.26 -0.62 s0.38668 -0.26 0.64002 -0.26 l4.82 0 c1.0533 0 2.0134 0.22666 2.88 0.68 s1.6067 1.0467 2.22 1.78 s1.0867 1.5667 1.42 2.5 s0.5 1.88 0.5 2.84 c0 1.1867 -0.20334 2.27 -0.61 3.25 s-0.94 1.82 -1.6 2.52 s-1.41 1.2433 -2.25 1.63 s-1.6867 0.58 -2.54 0.58 z M214.359 6.279999999999999 l-3.94 -0.000078126 l0 12.26 l3.96 0 c0.76 0 1.4567 -0.18334 2.09 -0.55 s1.1833 -0.84332 1.65 -1.43 s0.83 -1.2533 1.09 -2 s0.39 -1.4933 0.39 -2.24 c0 -0.76 -0.12666 -1.5033 -0.38 -2.23 s-0.61 -1.3733 -1.07 -1.94 s-1.0133 -1.02 -1.66 -1.36 s-1.3567 -0.51 -2.13 -0.51 z M235.746 20.22 c-0.10666 0.05334 -0.21992 0.08 -0.33992 0.08 c-0.17334 0 -0.33668 -0.04666 -0.49002 -0.14 s-0.26334 -0.22668 -0.33 -0.40002 l-1.58 -3.72 l-7.26 0 l-1.58 3.72 c-0.09334 0.22666 -0.25334 0.38666 -0.48 0.48 s-0.45332 0.08668 -0.67998 -0.01998 c-0.22666 -0.09334 -0.38666 -0.25334 -0.48 -0.48 s-0.08668 -0.45332 0.01998 -0.67998 l1.8 -4.26 l4.22 -9.88 c0.06666 -0.17334 0.17332 -0.30668 0.31998 -0.40002 s0.31332 -0.14 0.49998 -0.14 c0.17334 0 0.33334 0.04666 0.48 0.14 s0.25332 0.22668 0.31998 0.40002 c1.0133 2.3734 2.02 4.73 3.02 7.07 s2.0066 4.6966 3.02 7.07 c0.09334 0.22666 0.09334 0.45332 0 0.67998 s-0.25334 0.38666 -0.48 0.48 z M229.386 7.539999999999999 l-2.88 6.72 l5.74 0 z M251.89999999999998 20.3 c-1.1067 0 -2.1434 -0.21006 -3.11 -0.63006 s-1.81 -0.99 -2.53 -1.71 s-1.29 -1.5633 -1.71 -2.53 s-0.63 -2.0034 -0.63 -3.11 c0 -1.0933 0.21 -2.1166 0.63 -3.07 s0.99 -1.78 1.71 -2.48 s1.5633 -1.25 2.53 -1.65 s2.0034 -0.6 3.11 -0.6 c1.0667 0 2.08 0.19666 3.04 0.59 s1.82 0.97 2.58 1.73 c0.18666 0.18666 0.28 0.4 0.28 0.64 s-0.09334 0.44666 -0.28 0.62 c-0.17334 0.17334 -0.38 0.26 -0.62 0.26 s-0.44666 -0.08666 -0.62 -0.26 c-0.6 -0.6 -1.2733 -1.0533 -2.02 -1.36 s-1.5333 -0.46 -2.36 -0.46 c-0.86666 0 -1.6767 0.15666 -2.43 0.47 s-1.41 0.74 -1.97 1.28 s-1 1.1767 -1.32 1.91 s-0.48 1.5267 -0.48 2.38 s0.16334 1.6567 0.49 2.41 s0.77 1.41 1.33 1.97 s1.2167 1.0033 1.97 1.33 s1.5567 0.49 2.41 0.49 c0.82666 0 1.6133 -0.15334 2.36 -0.46 s1.42 -0.75332 2.02 -1.34 c0.17334 -0.18666 0.38 -0.28 0.62 -0.28 s0.44666 0.09334 0.62 0.28 c0.18666 0.17334 0.28 0.38 0.28 0.62 s-0.09334 0.44666 -0.28 0.62 c-0.76 0.76 -1.62 1.34 -2.58 1.74 s-1.9733 0.6 -3.04 0.6 z M267.667 20.3 c-1.0933 0 -2.12 -0.20666 -3.08 -0.62 s-1.7967 -0.97668 -2.51 -1.69 s-1.2767 -1.55 -1.69 -2.51 s-0.62 -1.9867 -0.62 -3.08 c0 -1.08 0.20666 -2.1 0.62 -3.06 s0.97668 -1.7967 1.69 -2.51 s1.55 -1.2767 2.51 -1.69 s1.9867 -0.62 3.08 -0.62 c1.08 0 2.1 0.20666 3.06 0.62 s1.7967 0.97668 2.51 1.69 s1.2767 1.55 1.69 2.51 s0.62 1.98 0.62 3.06 c0 1.0933 -0.20666 2.12 -0.62 3.08 s-0.97668 1.7967 -1.69 2.51 s-1.55 1.2767 -2.51 1.69 s-1.98 0.62 -3.06 0.62 z M267.667 6.279999999999999 c-0.84 0 -1.6333 0.16 -2.38 0.48 s-1.4 0.75666 -1.96 1.31 s-1 1.2033 -1.32 1.95 s-0.48 1.54 -0.48 2.38 s0.16 1.6333 0.48 2.38 s0.76 1.4 1.32 1.96 s1.2133 1 1.96 1.32 s1.54 0.48 2.38 0.48 s1.6333 -0.16 2.38 -0.48 s1.3967 -0.76 1.95 -1.32 s0.99 -1.2133 1.31 -1.96 s0.48 -1.54 0.48 -2.38 s-0.16 -1.6333 -0.48 -2.38 s-0.75666 -1.3967 -1.31 -1.95 s-1.2033 -0.99 -1.95 -1.31 s-1.54 -0.48 -2.38 -0.48 z M287.71399999999994 20.3 c-0.33334 0 -0.58668 -0.14 -0.76002 -0.42 l-7.22 -11.44 l0 10.98 c0 0.24 -0.08334 0.44666 -0.25 0.62 s-0.37666 0.26 -0.63 0.26 c-0.24 0 -0.44666 -0.08666 -0.62 -0.26 s-0.26 -0.38 -0.26 -0.62 l0 -14.02 c0 -0.24 0.08666 -0.44666 0.26 -0.62 s0.38 -0.26 0.62 -0.26 c0.33334 0 0.58668 0.13334 0.76002 0.4 l7.22 11.44 l0 -10.96 c0 -0.24 0.08334 -0.44666 0.25 -0.62 s0.37666 -0.26 0.63 -0.26 c0.24 0 0.44666 0.08666 0.62 0.26 s0.26 0.38 0.26 0.62 l0 14.02 c0 0.24 -0.08666 0.44666 -0.26 0.62 s-0.38 0.26 -0.62 0.26 z M304.20799999999997 20.3 l-5.34 0 c-0.24 0 -0.44666 -0.08666 -0.62 -0.26 s-0.26 -0.38 -0.26 -0.62 l0 -14.02 c0 -0.25334 0.08666 -0.46334 0.26 -0.63 s0.38 -0.25 0.62 -0.25 c0.25334 0 0.46334 0.08334 0.63 0.25 s0.25 0.37666 0.25 0.63 l0 13.14 l4.46 0 c0.25334 0 0.46668 0.08666 0.64002 0.26 s0.26 0.38 0.26 0.62 s-0.08666 0.44666 -0.26 0.62 s-0.38668 0.26 -0.64002 0.26 z M307.09499999999997 20.3 c-0.25334 0 -0.46668 -0.08666 -0.64002 -0.26 s-0.26 -0.38 -0.26 -0.62 l0 -14.02 c0 -0.24 0.08666 -0.44666 0.26 -0.62 s0.38668 -0.26 0.64002 -0.26 c0.24 0 0.44666 0.08666 0.62 0.26 s0.26 0.38 0.26 0.62 l0 14.02 c0 0.24 -0.08666 0.44666 -0.26 0.62 s-0.38 0.26 -0.62 0.26 z M320.56199999999995 20.3 c-0.33334 0 -0.58668 -0.14 -0.76002 -0.42 l-7.22 -11.44 l0 10.98 c0 0.24 -0.08334 0.44666 -0.25 0.62 s-0.37666 0.26 -0.63 0.26 c-0.24 0 -0.44666 -0.08666 -0.62 -0.26 s-0.26 -0.38 -0.26 -0.62 l0 -14.02 c0 -0.24 0.08666 -0.44666 0.26 -0.62 s0.38 -0.26 0.62 -0.26 c0.33334 0 0.58668 0.13334 0.76002 0.4 l7.22 11.44 l0 -10.96 c0 -0.24 0.08334 -0.44666 0.25 -0.62 s0.37666 -0.26 0.63 -0.26 c0.24 0 0.44666 0.08666 0.62 0.26 s0.26 0.38 0.26 0.62 l0 14.02 c0 0.24 -0.08666 0.44666 -0.26 0.62 s-0.38 0.26 -0.62 0.26 z M333.36899999999997 20.3 c-0.24 0 -0.44 -0.07998 -0.6 -0.23998 l-6.72 -6.44 l0 5.8 c0 0.24 -0.08334 0.44666 -0.25 0.62 s-0.37666 0.26 -0.63 0.26 c-0.24 0 -0.44666 -0.08666 -0.62 -0.26 s-0.26 -0.38 -0.26 -0.62 l0 -14.02 c0 -0.25334 0.08666 -0.46334 0.26 -0.63 s0.38 -0.25 0.62 -0.25 c0.25334 0 0.46334 0.08334 0.63 0.25 s0.25 0.37666 0.25 0.63 l0 5.8 l6.72 -6.44 c0.17334 -0.17334 0.38 -0.25668 0.62 -0.25002 s0.44666 0.09666 0.62 0.27 c0.17334 0.18666 0.25668 0.4 0.25002 0.64 s-0.09666 0.44666 -0.27 0.62 l-6.64 6.36 l6.64 6.38 c0.17334 0.17334 0.26334 0.38 0.27 0.62 s-0.07668 0.44666 -0.25002 0.62 c-0.16 0.18666 -0.37334 0.28 -0.64 0.28 z M344.01599999999996 20.3 l-6.88 -0.000019531 c-0.25334 0 -0.46668 -0.08666 -0.64002 -0.26 s-0.26 -0.38 -0.26 -0.62 l0 -0.04 l0 -0.04 l0 -13.94 c0 -0.24 0.08666 -0.44666 0.26 -0.62 s0.38668 -0.26 0.64002 -0.26 l6.88 0 c0.25334 0 0.46668 0.08666 0.64002 0.26 s0.26 0.38 0.26 0.62 c0 0.25334 -0.08666 0.46334 -0.26 0.63 s-0.38668 0.25 -0.64002 0.25 l-6 0 l0 5.1 l5.06 0 c0.24 0 0.44666 0.08334 0.62 0.25 s0.26 0.37666 0.26 0.63 c0 0.24 -0.08666 0.44666 -0.26 0.62 s-0.38 0.26 -0.62 0.26 l-5.06 0 l0 5.38 l6 0 c0.25334 0 0.46668 0.08666 0.64002 0.26 s0.26 0.38668 0.26 0.64002 c0 0.24 -0.08666 0.44666 -0.26 0.62 s-0.38668 0.26 -0.64002 0.26 z M352.40299999999996 20.3 l-4.92 -0.000039062 c-0.16 0 -0.31334 -0.04666 -0.46 -0.14 s-0.25332 -0.21334 -0.31998 -0.36 c-0.12 -0.21334 -0.13334 -0.45334 -0.04 -0.72 l0 -13.68 c0 -0.24 0.08666 -0.44666 0.26 -0.62 s0.38668 -0.26 0.64002 -0.26 l4.82 0 c1.0533 0 2.0134 0.22666 2.88 0.68 s1.6067 1.0467 2.22 1.78 s1.0867 1.5667 1.42 2.5 s0.5 1.88 0.5 2.84 c0 1.1867 -0.20334 2.27 -0.61 3.25 s-0.94 1.82 -1.6 2.52 s-1.41 1.2433 -2.25 1.63 s-1.6867 0.58 -2.54 0.58 z M352.383 6.279999999999999 l-3.94 -0.000078126 l0 12.26 l3.96 0 c0.76 0 1.4567 -0.18334 2.09 -0.55 s1.1833 -0.84332 1.65 -1.43 s0.83 -1.2533 1.09 -2 s0.39 -1.4933 0.39 -2.24 c0 -0.76 -0.12666 -1.5033 -0.38 -2.23 s-0.61 -1.3733 -1.07 -1.94 s-1.0133 -1.02 -1.66 -1.36 s-1.3567 -0.51 -2.13 -0.51 z M362.71 20.3 c-0.25334 0 -0.46668 -0.08666 -0.64002 -0.26 s-0.26 -0.38 -0.26 -0.62 l0 -14.02 c0 -0.24 0.08666 -0.44666 0.26 -0.62 s0.38668 -0.26 0.64002 -0.26 c0.24 0 0.44666 0.08666 0.62 0.26 s0.26 0.38 0.26 0.62 l0 14.02 c0 0.24 -0.08666 0.44666 -0.26 0.62 s-0.38 0.26 -0.62 0.26 z M376.17699999999996 20.3 c-0.33334 0 -0.58668 -0.14 -0.76002 -0.42 l-7.22 -11.44 l0 10.98 c0 0.24 -0.08334 0.44666 -0.25 0.62 s-0.37666 0.26 -0.63 0.26 c-0.24 0 -0.44666 -0.08666 -0.62 -0.26 s-0.26 -0.38 -0.26 -0.62 l0 -14.02 c0 -0.24 0.08666 -0.44666 0.26 -0.62 s0.38 -0.26 0.62 -0.26 c0.33334 0 0.58668 0.13334 0.76002 0.4 l7.22 11.44 l0 -10.96 c0 -0.24 0.08334 -0.44666 0.25 -0.62 s0.37666 -0.26 0.63 -0.26 c0.24 0 0.44666 0.08666 0.62 0.26 s0.26 0.38 0.26 0.62 l0 14.02 c0 0.24 -0.08666 0.44666 -0.26 0.62 s-0.38 0.26 -0.62 0.26 z M394.231 20.3 l-6.88 -0.000019531 c-0.25334 0 -0.46668 -0.08666 -0.64002 -0.26 s-0.26 -0.38 -0.26 -0.62 l0 -0.04 l0 -0.04 l0 -13.94 c0 -0.24 0.08666 -0.44666 0.26 -0.62 s0.38668 -0.26 0.64002 -0.26 l6.88 0 c0.25334 0 0.46668 0.08666 0.64002 0.26 s0.26 0.38 0.26 0.62 c0 0.25334 -0.08666 0.46334 -0.26 0.63 s-0.38668 0.25 -0.64002 0.25 l-6 0 l0 5.1 l5.06 0 c0.24 0 0.44666 0.08334 0.62 0.25 s0.26 0.37666 0.26 0.63 c0 0.24 -0.08666 0.44666 -0.26 0.62 s-0.38 0.26 -0.62 0.26 l-5.06 0 l0 5.38 l6 0 c0.25334 0 0.46668 0.08666 0.64002 0.26 s0.26 0.38668 0.26 0.64002 c0 0.24 -0.08666 0.44666 -0.26 0.62 s-0.38668 0.26 -0.64002 0.26 z M404.26500000000004 20.3 c-0.25334 0 -0.46668 -0.08666 -0.64002 -0.26 s-0.26 -0.38 -0.26 -0.62 l0 -14.02 c0 -0.24 0.08666 -0.44666 0.26 -0.62 s0.38668 -0.26 0.64002 -0.26 c0.24 0 0.44666 0.08666 0.62 0.26 s0.26 0.38 0.26 0.62 l0 14.02 c0 0.24 -0.08666 0.44666 -0.26 0.62 s-0.38 0.26 -0.62 0.26 z M419.95200000000006 20.22 c-0.10666 0.05334 -0.21992 0.08 -0.33992 0.08 c-0.17334 0 -0.33668 -0.04666 -0.49002 -0.14 s-0.26334 -0.22668 -0.33 -0.40002 l-1.58 -3.72 l-7.26 0 l-1.58 3.72 c-0.09334 0.22666 -0.25334 0.38666 -0.48 0.48 s-0.45332 0.08668 -0.67998 -0.01998 c-0.22666 -0.09334 -0.38666 -0.25334 -0.48 -0.48 s-0.08668 -0.45332 0.01998 -0.67998 l1.8 -4.26 l4.22 -9.88 c0.06666 -0.17334 0.17332 -0.30668 0.31998 -0.40002 s0.31332 -0.14 0.49998 -0.14 c0.17334 0 0.33334 0.04666 0.48 0.14 s0.25332 0.22668 0.31998 0.40002 c1.0133 2.3734 2.02 4.73 3.02 7.07 s2.0066 4.6966 3.02 7.07 c0.09334 0.22666 0.09334 0.45332 0 0.67998 s-0.25334 0.38666 -0.48 0.48 z M413.59200000000004 7.539999999999999 l-2.88 6.72 l5.74 0 z"></path></g>
			</g>
		</svg>
	